<svg width="48" height="48" viewBox="0 0 48 48" fill="none" xmlns="http://www.w3.org/2000/svg">
<g clip-path="url(#clip0_3_29)">
<rect width="48" height="48" fill="white"/>
<path d="M26.5 40.5C26.5 41.7509 25.5297 43.2283 23.1912 44.4811C20.9155 45.7002 17.6686 46.5 14 46.5C10.3314 46.5 7.08446 45.7002 4.80884 44.4811C2.47033 43.2283 1.5 41.7509 1.5 40.5C1.5 39.2491 2.47033 37.7717 4.80884 36.5189C7.08446 35.2998 10.3314 34.5 14 34.5C17.6686 34.5 20.9155 35.2998 23.1912 36.5189C25.5297 37.7717 26.5 39.2491 26.5 40.5Z" stroke="#152C5B" stroke-width="3"/>
<path d="M26.5 12.4464C26.5 15.6177 25.0038 22.5551 22.5085 28.7397C21.2671 31.8162 19.821 34.5968 18.2682 36.5806C16.6698 38.6227 15.216 39.5 14 39.5C12.784 39.5 11.3302 38.6227 9.73176 36.5806C8.179 34.5968 6.73286 31.8162 5.49155 28.7397C2.99619 22.5551 1.5 15.6177 1.5 12.4464C1.5 6.56188 6.92571 1.5 14 1.5C21.0743 1.5 26.5 6.56188 26.5 12.4464Z" fill="white" stroke="#152C5B" stroke-width="3"/>
<circle cx="14" cy="16" r="4.5" stroke="#FF498B" stroke-width="3"/>
</g>
<defs>
<clipPath id="clip0_3_29">
<rect width="48" height="48" fill="white"/>
</clipPath>
</defs>
</svg>
