<svg width="48" height="48" viewBox="0 0 48 48" fill="none" xmlns="http://www.w3.org/2000/svg">
<g clip-path="url(#clip0_3_11)">
<rect width="48" height="48" fill="white"/>
<rect x="1.5" y="14.5" width="26" height="32" rx="6.5" stroke="#152C5B" stroke-width="3"/>
<rect x="1.5" y="14.5" width="26" height="32" rx="6.5" stroke="#152C5B" stroke-width="3"/>
<rect x="1.5" y="14.5" width="26" height="32" rx="6.5" stroke="#152C5B" stroke-width="3"/>
<path d="M9.5 4C9.5 2.61929 10.6193 1.5 12 1.5H17C18.3807 1.5 19.5 2.61929 19.5 4V14.5H9.5V4Z" stroke="#152C5B" stroke-width="3"/>
<path d="M9.5 4C9.5 2.61929 10.6193 1.5 12 1.5H17C18.3807 1.5 19.5 2.61929 19.5 4V14.5H9.5V4Z" stroke="#152C5B" stroke-width="3"/>
<path d="M9.5 4C9.5 2.61929 10.6193 1.5 12 1.5H17C18.3807 1.5 19.5 2.61929 19.5 4V14.5H9.5V4Z" stroke="#152C5B" stroke-width="3"/>
<rect x="8" y="21" width="1" height="18" stroke="#FF498B" stroke-width="2" stroke-linejoin="round"/>
<rect x="20" y="21" width="1" height="18" stroke="#FF498B" stroke-width="2" stroke-linejoin="round"/>
<rect x="14" y="26" width="1" height="9" stroke="#FF498B" stroke-width="2" stroke-linejoin="round"/>
</g>
<defs>
<clipPath id="clip0_3_11">
<rect width="48" height="48" fill="white"/>
</clipPath>
</defs>
</svg>
